# xmcd
# 
# Track frame offsets:
#     150
#     14232
#     35030
#     54860
#     71247
#     87435
#     109507
#     130410
#     144045
#     166490
#     188332
#     211917
#     229435
#     254670
#     268787
#     284545
# 
# Disc length: 4121
# 
# Revision: 2
# Processed by: cddbd v1.5.2PL0 Copyright (c) Steve Scherf et al.
# Submitted via: BonkEnc v1.0
# 
DISCID=f3101710
DTITLE=Calvin Russell - Crossroad
DYEAR=2000
DGENRE=Country
TTITLE0=Where The Blues Get Born
TTITLE1=One Meat Ball
TTITLE2=Let The Music Play
TTITLE3=A Crack In Time
TTITLE4=Time Flies
TTITLE5=Soldier
TTITLE6=Little Stars
TTITLE7=Rats And Roaches
TTITLE8=Crossroads
TTITLE9=Behind The 8 Ball
TTITLE10=Sam Brown
TTITLE11=Wild Wild West
TTITLE12=This Is Your World
TTITLE13=That Wouldn't Be Enough
TTITLE14=I Gave My Soul To You
TTITLE15=Somewhere Over The Rainbow
EXTD=YEAR: 2000 ID3G:   2
EXTT0=
EXTT1=
EXTT2=
EXTT3=
EXTT4=
EXTT5=
EXTT6=
EXTT7=
EXTT8=
EXTT9=
EXTT10=
EXTT11=
EXTT12=
EXTT13=
EXTT14=
EXTT15=
PLAYORDER=
